<svg id="visual" viewBox="0 0 960 540" width="960" height="540" xmlns="http://www.w3.org/2000/svg" xmlns:xlink="http://www.w3.org/1999/xlink" version="1.1"><rect x="0" y="0" width="960" height="540" fill="#f6f4c0"></rect><path d="M0 364L17.8 368.8C35.7 373.7 71.3 383.3 106.8 383.5C142.3 383.7 177.7 374.3 213.2 360.7C248.7 347 284.3 329 320 314.2C355.7 299.3 391.3 287.7 426.8 296.8C462.3 306 497.7 336 533.2 354.8C568.7 373.7 604.3 381.3 640 366.2C675.7 351 711.3 313 746.8 309C782.3 305 817.7 335 853.2 344.5C888.7 354 924.3 343 942.2 337.5L960 332L960 541L942.2 541C924.3 541 888.7 541 853.2 541C817.7 541 782.3 541 746.8 541C711.3 541 675.7 541 640 541C604.3 541 568.7 541 533.2 541C497.7 541 462.3 541 426.8 541C391.3 541 355.7 541 320 541C284.3 541 248.7 541 213.2 541C177.7 541 142.3 541 106.8 541C71.3 541 35.7 541 17.8 541L0 541Z" fill="#a8e800" stroke-linecap="round" stroke-linejoin="miter"></path></svg>